<?xml version="1.0" encoding="UTF-8"?>
<svg width="1024" height="576" xmlns="http://www.w3.org/2000/svg">
  <defs>
    <linearGradient id="bg" x1="0%" y1="0%" x2="100%" y2="100%">
      <stop offset="0%" style="stop-color:#1a1a2e"/>
      <stop offset="50%" style="stop-color:#16213e"/>
      <stop offset="100%" style="stop-color:#0f3460"/>
    </linearGradient>
    <linearGradient id="accent" x1="0%" y1="0%" x2="100%" y2="0%">
      <stop offset="0%" style="stop-color:#e94560"/>
      <stop offset="100%" style="stop-color:#533483"/>
    </linearGradient>
  </defs>
  <rect width="1024" height="576" fill="url(#bg)"/>
  <g opacity="0.1" stroke="#fff" stroke-width="0.5">
    <line x1="0" y1="0" x2="1024" y2="0"/><line x1="0" y1="40" x2="1024" y2="40"/><line x1="0" y1="80" x2="1024" y2="80"/><line x1="0" y1="120" x2="1024" y2="120"/><line x1="0" y1="160" x2="1024" y2="160"/><line x1="0" y1="200" x2="1024" y2="200"/><line x1="0" y1="240" x2="1024" y2="240"/><line x1="0" y1="280" x2="1024" y2="280"/><line x1="0" y1="320" x2="1024" y2="320"/><line x1="0" y1="360" x2="1024" y2="360"/><line x1="0" y1="400" x2="1024" y2="400"/><line x1="0" y1="440" x2="1024" y2="440"/><line x1="0" y1="480" x2="1024" y2="480"/><line x1="0" y1="520" x2="1024" y2="520"/><line x1="0" y1="560" x2="1024" y2="560"/>
    <line x1="0" y1="0" x2="0" y2="576"/><line x1="40" y1="0" x2="40" y2="576"/><line x1="80" y1="0" x2="80" y2="576"/><line x1="120" y1="0" x2="120" y2="576"/><line x1="160" y1="0" x2="160" y2="576"/><line x1="200" y1="0" x2="200" y2="576"/><line x1="240" y1="0" x2="240" y2="576"/><line x1="280" y1="0" x2="280" y2="576"/><line x1="320" y1="0" x2="320" y2="576"/><line x1="360" y1="0" x2="360" y2="576"/><line x1="400" y1="0" x2="400" y2="576"/><line x1="440" y1="0" x2="440" y2="576"/><line x1="480" y1="0" x2="480" y2="576"/><line x1="520" y1="0" x2="520" y2="576"/><line x1="560" y1="0" x2="560" y2="576"/><line x1="600" y1="0" x2="600" y2="576"/><line x1="640" y1="0" x2="640" y2="576"/><line x1="680" y1="0" x2="680" y2="576"/><line x1="720" y1="0" x2="720" y2="576"/><line x1="760" y1="0" x2="760" y2="576"/><line x1="800" y1="0" x2="800" y2="576"/><line x1="840" y1="0" x2="840" y2="576"/><line x1="880" y1="0" x2="880" y2="576"/><line x1="920" y1="0" x2="920" y2="576"/><line x1="960" y1="0" x2="960" y2="576"/><line x1="1000" y1="0" x2="1000" y2="576"/>
  </g>
  <circle cx="150" cy="150" r="80" fill="none" stroke="#e94560" stroke-width="2" opacity="0.3"/>
  <circle cx="874" cy="426" r="60" fill="none" stroke="#533483" stroke-width="2" opacity="0.3"/>
  <circle cx="512" cy="288" r="120" fill="none" stroke="#00d2ff" stroke-width="1" opacity="0.15"/>
  <text x="512" y="258" text-anchor="middle" font-size="48" fill="#e94560">🤖</text>
  <text x="512" y="318" text-anchor="middle" font-family="sans-serif" font-size="18" fill="#aaa">Result/achievement illustration for: 뼈다 ...</text>
  <rect x="452" y="526" width="120" height="3" rx="1.5" fill="url(#accent)"/>
  <text x="512" y="551" text-anchor="middle" font-family="sans-serif" font-size="11" fill="#666">WonderX Blog</text>
</svg>